<svg id="Layer_1" data-name="Layer 1" xmlns="http://www.w3.org/2000/svg" xmlns:xlink="http://www.w3.org/1999/xlink" viewBox="0 0 118 41"><defs><style>.cls-1{fill:url(#linear-gradient);}</style><linearGradient id="linear-gradient" x1="144" y1="107" x2="144" y2="66" gradientUnits="userSpaceOnUse"><stop offset="0" stop-color="#0071bc"/><stop offset="1" stop-color="#39b54a"/></linearGradient></defs><title>fekio.logo</title><path class="cls-1" d="M203,107H85V66H203ZM100,90.09h5.76V83.35H100V79h6.18V72H91.91v29.81h8Zm24.27,11.72V94.64h-6.91V90.09h6.2V83.35h-6.2V79h6.91V72h-15v29.81Zm18.09-15.43L148.75,72h-8.5L135.5,84.78,135.72,72h-8v29.81h8l-.22-13.75,5.35,13.75h8.69Zm16.58,8.19a4.39,4.39,0,0,0-3.24-1.35,4.47,4.47,0,0,0-4.48,4.47,4.38,4.38,0,0,0,1.33,3.23,4.52,4.52,0,0,0,3.22,1.31,4.31,4.31,0,0,0,3.17-1.29,4.17,4.17,0,0,0,1.33-3.11A4.42,4.42,0,0,0,158.9,94.57ZM171.8,72h-8.05v29.81h8.05Zm23,3.67a9.63,9.63,0,0,0-8.21-4.21,9.91,9.91,0,0,0-7.28,3.11q-4.12,4.19-4.13,12.1,0,8.27,4,12.4a10.13,10.13,0,0,0,7.55,3.26,9.53,9.53,0,0,0,8.05-4.25q3.1-4.26,3.11-11.08Q197.88,79.88,194.83,75.67Zm-6.12,17.08c-.52,1.37-1.25,2-2.2,2s-1.65-.69-2.18-2.08a17.22,17.22,0,0,1-.78-5.84,15.7,15.7,0,0,1,.83-5.79c.57-1.41,1.33-2.12,2.28-2.12q2.86,0,2.86,8.09A15.93,15.93,0,0,1,188.71,92.75Z" transform="translate(-85 -66)"/></svg>