<?xml version="1.0" encoding="utf-8"?>
<!-- Generator: Adobe Illustrator 25.2.3, SVG Export Plug-In . SVG Version: 6.00 Build 0)  -->
<svg version="1.1" id="Layer_1" xmlns="http://www.w3.org/2000/svg" xmlns:xlink="http://www.w3.org/1999/xlink" x="0px" y="0px"
	 viewBox="0 0 1366 768" style="enable-background:new 0 0 1366 768;" xml:space="preserve">
<style type="text/css">
	.st0{fill:#CF93D1;}
	.st1{opacity:0.5;}
	.st2{fill:#D7E4D8;}
	.st3{font-family:'MyriadPro-Regular';}
	.st4{font-size:12px;}
</style>
<g>
	<rect x="154.5" y="224.5" class="st0" width="35" height="307"/>
	<path d="M189,225v306h-34V225H189 M190,224h-36v308h36V224L190,224z"/>
</g>
<g>
	<rect x="193.5" y="224.5" class="st0" width="95" height="307"/>
	<path d="M288,225v306h-94V225H288 M289,224h-96v308h96V224L289,224z"/>
</g>
<g>
	<rect x="292.5" y="224.5" class="st0" width="95" height="307"/>
	<path d="M387,225v306h-94V225H387 M388,224h-96v308h96V224L388,224z"/>
</g>
<g>
	<rect x="391.5" y="224.5" class="st0" width="95" height="307"/>
	<path d="M486,225v306h-94V225H486 M487,224h-96v308h96V224L487,224z"/>
</g>
<g>
	<rect x="490.5" y="224.5" class="st0" width="95" height="307"/>
	<path d="M585,225v306h-94V225H585 M586,224h-96v308h96V224L586,224z"/>
</g>
<g>
	<rect x="589.5" y="224.5" class="st0" width="32" height="307"/>
	<path d="M621,225v306h-31V225H621 M622,224h-33v308h33V224L622,224z"/>
</g>
<g class="st1">
	<rect x="55.5" y="248.5" class="st2" width="566" height="23"/>
	<path d="M621,249v22H56v-22H621 M622,248H55v24h567V248L622,248z"/>
</g>
<g class="st1">
	<rect x="55.5" y="274.5" class="st2" width="566" height="23"/>
	<path d="M621,275v22H56v-22H621 M622,274H55v24h567V274L622,274z"/>
</g>
<g class="st1">
	<rect x="55.5" y="300.5" class="st2" width="566" height="23"/>
	<path d="M621,301v22H56v-22H621 M622,300H55v24h567V300L622,300z"/>
</g>
<g class="st1">
	<rect x="55.5" y="326.5" class="st2" width="566" height="23"/>
	<path d="M621,327v22H56v-22H621 M622,326H55v24h567V326L622,326z"/>
</g>
<g class="st1">
	<rect x="55.5" y="352.5" class="st2" width="566" height="23"/>
	<path d="M621,353v22H56v-22H621 M622,352H55v24h567V352L622,352z"/>
</g>
<g class="st1">
	<rect x="55.5" y="378.5" class="st2" width="566" height="23"/>
	<path d="M621,379v22H56v-22H621 M622,378H55v24h567V378L622,378z"/>
</g>
<g class="st1">
	<rect x="55.5" y="404.5" class="st2" width="566" height="23"/>
	<path d="M621,405v22H56v-22H621 M622,404H55v24h567V404L622,404z"/>
</g>
<g class="st1">
	<rect x="55.5" y="430.5" class="st2" width="566" height="23"/>
	<path d="M621,431v22H56v-22H621 M622,430H55v24h567V430L622,430z"/>
</g>
<g class="st1">
	<rect x="55.5" y="456.5" class="st2" width="566" height="23"/>
	<path d="M621,457v22H56v-22H621 M622,456H55v24h567V456L622,456z"/>
</g>
<g class="st1">
	<rect x="55.5" y="482.5" class="st2" width="566" height="23"/>
	<path d="M621,483v22H56v-22H621 M622,482H55v24h567V482L622,482z"/>
</g>
<g class="st1">
	<rect x="55.5" y="508.5" class="st2" width="566" height="23"/>
	<path d="M621,509v22H56v-22H621 M622,508H55v24h567V508L622,508z"/>
</g>
<text transform="matrix(1 0 0 1 84.3335 265.3335)" class="st3 st4">Record</text>
<text transform="matrix(1 0 0 1 84.3335 290.3335)" class="st3 st4">Record</text>
<text transform="matrix(1 0 0 1 84.3335 316.3335)" class="st3 st4">Record</text>
<text transform="matrix(1 0 0 1 84.3335 342.3335)" class="st3 st4">Record</text>
<text transform="matrix(1 0 0 1 84.3335 368.3335)" class="st3 st4">Record</text>
<text transform="matrix(1 0 0 1 84.3335 394.3335)" class="st3 st4">Record</text>
<text transform="matrix(1 0 0 1 84.3335 420.3335)" class="st3 st4">Record</text>
<text transform="matrix(1 0 0 1 84.3335 446.3335)" class="st3 st4">Record</text>
<text transform="matrix(1 0 0 1 84.3335 472.3335)" class="st3 st4">Record</text>
<text transform="matrix(1 0 0 1 84.3335 498.3335)" class="st3 st4">Record</text>
<text transform="matrix(1 0 0 1 84.3335 524.3335)" class="st3 st4">Record</text>
<text transform="matrix(1 0 0 1 168.3335 241)" class="st3 st4">Id</text>
<text transform="matrix(1 0 0 1 216.3335 241)" class="st3 st4">firstname</text>
<text transform="matrix(1 0 0 1 316.3335 241)" class="st3 st4">lastname</text>
<text transform="matrix(1 0 0 1 426.3335 241)" class="st3 st4">date</text>
<text transform="matrix(1 0 0 1 511.3335 241)" class="st3 st4">username  </text>
<text transform="matrix(0.7921 0 0 1 593.4268 241)" class="st3 st4">active</text>
</svg>
